<svg xmlns="http://www.w3.org/2000/svg" xmlns:xlink="http://www.w3.org/1999/xlink" width="1920" zoomAndPan="magnify" viewBox="0 0 1440 809.999993" height="1080" preserveAspectRatio="xMidYMid meet" version="1.0"><defs><g/></defs><g fill="#fff" fill-opacity="1"><g transform="translate(457.499983, 520.499994)"><g><path d="M 450.46875 -216.859375 C 453.84375 -217.316406 456.4375 -216.640625 458.25 -214.828125 C 460.070312 -213.015625 460.617188 -210.488281 459.890625 -207.25 C 458.429688 -201.632812 456.445312 -196.113281 453.9375 -190.6875 C 445.082031 -170.207031 435.503906 -150.085938 425.203125 -130.328125 C 403.390625 -88.898438 380.554688 -47.96875 356.703125 -7.53125 C 355.585938 -5.8125 354.5 -3.992188 353.4375 -2.078125 C 353.039062 -1.347656 352.613281 -0.625 352.15625 0.09375 C 351.289062 0.957031 350.644531 1.867188 350.21875 2.828125 C 349.789062 3.785156 349.773438 4.691406 350.171875 5.546875 C 350.898438 6.671875 351.804688 7.234375 352.890625 7.234375 C 353.984375 7.234375 355.125 7.035156 356.3125 6.640625 C 357.300781 6.179688 358.328125 5.953125 359.390625 5.953125 C 360.242188 5.816406 361.164062 5.75 362.15625 5.75 C 363.75 5.488281 365.351562 5.390625 366.96875 5.453125 C 368.582031 5.515625 370.117188 6.039062 371.578125 7.03125 C 372.171875 7.363281 372.648438 7.742188 373.015625 8.171875 C 373.378906 8.609375 373.394531 9.253906 373.0625 10.109375 C 372.925781 10.703125 372.644531 11.242188 372.21875 11.734375 C 371.789062 12.234375 371.28125 12.421875 370.6875 12.296875 C 364.738281 11.828125 358.859375 12.054688 353.046875 12.984375 C 346.171875 13.972656 340.914062 17.609375 337.28125 23.890625 C 317.851562 55.140625 295.550781 84.210938 270.375 111.109375 C 263.238281 118.898438 255.820312 126.363281 248.125 133.5 C 240.425781 140.632812 232.085938 147.113281 223.109375 152.9375 C 215.378906 158.019531 207.085938 162.082031 198.234375 165.125 C 193.003906 166.707031 187.679688 167.5 182.265625 167.5 L 182.078125 167.5 C 180.359375 167.5 178.671875 167.429688 177.015625 167.296875 C 170.671875 166.703125 165.8125 164.457031 162.4375 160.5625 C 159.070312 156.664062 157.625 151.578125 158.09375 145.296875 C 158.8125 137.566406 161.125 130.363281 165.03125 123.6875 C 172.164062 111.207031 180.984375 99.941406 191.484375 89.890625 C 209.054688 72.578125 228.117188 57.707031 248.671875 45.28125 C 269.222656 32.863281 291.359375 23.1875 315.078125 16.25 C 324.660156 13.738281 331.992188 8.125 337.078125 -0.59375 C 351.484375 -25.175781 365.65625 -49.851562 379.59375 -74.625 C 393.539062 -99.40625 406.925781 -124.515625 419.75 -149.953125 C 423.84375 -157.953125 427.835938 -166.082031 431.734375 -174.34375 C 432.460938 -176.125 433.253906 -177.875 434.109375 -179.59375 C 436.160156 -183.820312 437.148438 -186.476562 437.078125 -187.5625 C 437.015625 -188.65625 436.289062 -188.722656 434.90625 -187.765625 C 433.519531 -186.804688 431.882812 -185.382812 430 -183.5 C 428.113281 -181.625 426.378906 -179.828125 424.796875 -178.109375 C 423.609375 -176.921875 422.71875 -175.960938 422.125 -175.234375 C 384.0625 -136.242188 343.226562 -100.332031 299.625 -67.5 C 290.769531 -60.6875 281.617188 -54.335938 272.171875 -48.453125 C 262.722656 -42.578125 252.8125 -37.296875 242.4375 -32.609375 C 236.613281 -30.160156 230.660156 -28.207031 224.578125 -26.75 C 218.503906 -25.300781 212.195312 -24.644531 205.65625 -24.78125 C 190.0625 -25.507812 181.898438 -33.734375 181.171875 -49.453125 C 180.910156 -58.441406 182.234375 -67.164062 185.140625 -75.625 C 191.953125 -96.96875 200.507812 -117.515625 210.8125 -137.265625 C 220.59375 -155.773438 230.40625 -174.113281 240.25 -192.28125 C 243.882812 -198.820312 247.453125 -205.429688 250.953125 -212.109375 C 261.265625 -230.410156 270.582031 -249.304688 278.90625 -268.796875 C 281.21875 -274.148438 283.164062 -279.664062 284.75 -285.34375 C 285.9375 -289.84375 286.53125 -294.4375 286.53125 -299.125 C 286.53125 -305.800781 283.195312 -310.0625 276.53125 -311.90625 C 272.695312 -313.09375 268.925781 -313.6875 265.21875 -313.6875 C 261.519531 -313.6875 257.722656 -313.390625 253.828125 -312.796875 C 235.785156 -310.222656 218.34375 -305.5 201.5 -298.625 C 146.851562 -277.675781 98.15625 -247.378906 55.40625 -207.734375 C 45.363281 -198.421875 36.34375 -188.34375 28.34375 -177.5 C 20.351562 -166.664062 13.679688 -155.007812 8.328125 -142.53125 C 4.691406 -134.269531 1.851562 -125.875 -0.1875 -117.34375 C -2.238281 -108.820312 -3.132812 -100.003906 -2.875 -90.890625 C -2.539062 -83.285156 -1.1875 -76.03125 1.1875 -69.125 C 3.5625 -62.226562 7.289062 -56.382812 12.375 -51.59375 C 17.46875 -46.800781 24.179688 -43.742188 32.515625 -42.421875 C 33.109375 -42.285156 33.582031 -41.96875 33.9375 -41.46875 C 34.300781 -40.976562 34.320312 -40.367188 34 -39.640625 C 33.863281 -39.179688 33.644531 -38.800781 33.34375 -38.5 C 33.050781 -38.207031 32.773438 -37.992188 32.515625 -37.859375 C 27.085938 -36.410156 21.765625 -36.84375 16.546875 -39.15625 C 7.566406 -43.113281 0.597656 -48.726562 -4.359375 -56 C -9.316406 -63.269531 -12.519531 -71.394531 -13.96875 -80.375 C -15.425781 -89.363281 -15.492188 -98.453125 -14.171875 -107.640625 C -12.253906 -120.453125 -8.832031 -132.585938 -3.90625 -144.046875 C 1.007812 -155.515625 7.164062 -166.570312 14.5625 -177.21875 C 22.5625 -188.382812 31.398438 -198.804688 41.078125 -208.484375 C 50.765625 -218.160156 61.054688 -227.195312 71.953125 -235.59375 C 89.660156 -249.269531 108.144531 -261.738281 127.40625 -273 C 146.664062 -284.269531 166.769531 -294.132812 187.71875 -302.59375 C 197.894531 -306.625 208.21875 -310.207031 218.6875 -313.34375 C 229.164062 -316.488281 239.851562 -318.785156 250.75 -320.234375 C 255.976562 -320.960938 261.25 -321.359375 266.5625 -321.421875 C 271.882812 -321.492188 277.085938 -320.867188 282.171875 -319.546875 C 296.578125 -315.910156 302.59375 -306.820312 300.21875 -292.28125 C 298.5 -282.707031 295.59375 -273.492188 291.5 -264.640625 C 283.363281 -246.003906 274.441406 -227.832031 264.734375 -210.125 C 260.242188 -201.863281 255.71875 -193.570312 251.15625 -185.25 C 242.03125 -168.394531 232.941406 -151.476562 223.890625 -134.5 C 213.722656 -115.007812 205.367188 -94.722656 198.828125 -73.640625 C 197.703125 -69.867188 196.691406 -66.019531 195.796875 -62.09375 C 194.898438 -58.164062 194.617188 -54.148438 194.953125 -50.046875 C 195.222656 -47.140625 195.785156 -44.300781 196.640625 -41.53125 C 198.554688 -36.175781 202.359375 -33.367188 208.046875 -33.109375 C 212.265625 -32.773438 216.390625 -33.269531 220.421875 -34.59375 C 228.285156 -36.769531 235.734375 -39.675781 242.765625 -43.3125 C 249.804688 -46.945312 256.765625 -51.007812 263.640625 -55.5 C 277.316406 -64.226562 290.515625 -73.613281 303.234375 -83.65625 C 315.953125 -93.695312 328.488281 -104.003906 340.84375 -114.578125 C 373.226562 -142.390625 403.820312 -171.988281 432.625 -203.375 C 435.800781 -206.882812 439.140625 -210.15625 442.640625 -213.1875 C 444.816406 -215.238281 447.425781 -216.460938 450.46875 -216.859375 Z M 318.15625 29.046875 C 318.414062 28.773438 318.710938 28.507812 319.046875 28.25 C 319.578125 27.519531 319.988281 26.789062 320.28125 26.0625 C 320.582031 25.34375 320.4375 24.617188 319.84375 23.890625 C 319.113281 23.160156 318.316406 22.859375 317.453125 22.984375 C 316.597656 23.117188 315.742188 23.421875 314.890625 23.890625 C 314.554688 24.015625 314.191406 24.078125 313.796875 24.078125 C 311.742188 24.941406 309.691406 25.738281 307.640625 26.46875 C 307.378906 26.59375 307.082031 26.722656 306.75 26.859375 C 285.875 34.859375 266.484375 45 248.578125 57.28125 C 230.671875 69.570312 213.953125 83.710938 198.421875 99.703125 C 192.148438 105.984375 186.632812 112.890625 181.875 120.421875 C 178.101562 126.109375 175.195312 132.15625 173.15625 138.5625 C 171.695312 142.59375 171.460938 146.722656 172.453125 150.953125 C 173.910156 156.503906 177.910156 159.34375 184.453125 159.46875 C 190.398438 158.476562 196.445312 156.300781 202.59375 152.9375 C 209.257812 149.425781 215.5 145.457031 221.3125 141.03125 C 227.132812 136.601562 232.722656 131.847656 238.078125 126.765625 C 255.984375 109.921875 272.332031 91.75 287.125 72.25 C 295.320312 61.476562 303.253906 50.507812 310.921875 39.34375 C 313.429688 35.976562 315.84375 32.546875 318.15625 29.046875 Z M 318.15625 29.046875 "/></g></g><g transform="translate(871.190654, 520.499994)"><g><path d="M 39.390625 -41.765625 C 35.859375 -37.578125 31.679688 -33.734375 26.859375 -30.234375 C 22.035156 -26.734375 16.582031 -24.367188 10.5 -23.140625 C 4.425781 -21.921875 -0.289062 -22.367188 -3.65625 -24.484375 C -7.03125 -26.597656 -7.695312 -31.289062 -5.65625 -38.5625 C -3.007812 -46.09375 0.625 -53.257812 5.25 -60.0625 C 6.3125 -61.519531 7.832031 -62.546875 9.8125 -63.140625 C 11.269531 -63.460938 12.539062 -63.210938 13.625 -62.390625 C 14.71875 -61.566406 15.128906 -60.523438 14.859375 -59.265625 C 13.867188 -56.890625 12.78125 -54.507812 11.59375 -52.125 C 10.40625 -49.75 9.613281 -48.195312 9.21875 -47.46875 C 6.90625 -43.238281 5.285156 -38.8125 4.359375 -34.1875 C 4.359375 -31.550781 7.894531 -31.390625 14.96875 -33.703125 C 22.039062 -36.015625 28.910156 -40.257812 35.578125 -46.4375 C 42.253906 -52.613281 45.441406 -54.425781 45.140625 -51.875 C 44.847656 -49.332031 42.929688 -45.960938 39.390625 -41.765625 Z M 22.109375 -74.9375 C 21.773438 -74.664062 21.09375 -74.347656 20.0625 -73.984375 C 19.039062 -73.617188 17.953125 -73.351562 16.796875 -73.1875 C 15.640625 -73.03125 14.726562 -73.210938 14.0625 -73.734375 C 13.40625 -74.265625 13.375 -75.320312 13.96875 -76.90625 C 15.03125 -79.6875 16.140625 -82.113281 17.296875 -84.1875 C 18.453125 -86.269531 19.957031 -88.566406 21.8125 -91.078125 C 23 -92.203125 24.285156 -92.8125 25.671875 -92.90625 C 27.054688 -93.007812 28.210938 -92.648438 29.140625 -91.828125 C 30.066406 -91.003906 30.332031 -89.863281 29.9375 -88.40625 C 28.476562 -83.1875 25.867188 -78.695312 22.109375 -74.9375 Z M 22.109375 -74.9375 "/></g></g><g transform="translate(909.844072, 520.499994)"><g><path d="M 78.5 -49.453125 C 79.550781 -48.128906 78.226562 -45.71875 74.53125 -42.21875 C 70.832031 -38.71875 66.898438 -35.773438 62.734375 -33.390625 C 58.578125 -31.015625 53.753906 -28.640625 48.265625 -26.265625 C 44.628906 -24.679688 40.765625 -24.148438 36.671875 -24.671875 C 32.578125 -25.203125 30.53125 -27.679688 30.53125 -32.109375 C 30.53125 -36.535156 31.550781 -40.929688 33.59375 -45.296875 C 35.644531 -49.785156 36.09375 -52.097656 34.9375 -52.234375 C 33.78125 -52.367188 31.382812 -51.28125 27.75 -48.96875 C 18.300781 -42.75 9.515625 -35.644531 1.390625 -27.65625 C -0.796875 -25.007812 -3.570312 -23.554688 -6.9375 -23.296875 C -8.65625 -23.296875 -9.992188 -23.835938 -10.953125 -24.921875 C -11.910156 -26.015625 -12.023438 -27.191406 -11.296875 -28.453125 C -5.484375 -39.210938 0.394531 -49.847656 6.34375 -60.359375 C 7.664062 -62.535156 9.648438 -63.890625 12.296875 -64.421875 C 13.410156 -64.617188 14.445312 -64.269531 15.40625 -63.375 C 16.363281 -62.488281 16.84375 -61.484375 16.84375 -60.359375 C 16.71875 -59.304688 16.289062 -58.050781 15.5625 -56.59375 C 15.226562 -55.738281 14.910156 -54.910156 14.609375 -54.109375 C 14.316406 -53.316406 14.21875 -52.65625 14.3125 -52.125 C 14.414062 -51.601562 14.832031 -51.441406 15.5625 -51.640625 C 16.550781 -52.171875 17.539062 -52.734375 18.53125 -53.328125 C 21.039062 -54.773438 23.453125 -56.160156 25.765625 -57.484375 C 27.816406 -58.671875 29.960938 -59.726562 32.203125 -60.65625 C 34.453125 -61.582031 36.800781 -62.210938 39.25 -62.546875 C 43.21875 -62.804688 46.023438 -61.910156 47.671875 -59.859375 C 49.328125 -57.816406 49.523438 -54.976562 48.265625 -51.34375 C 46.941406 -48.039062 45.554688 -44.769531 44.109375 -41.53125 C 42.316406 -38.488281 42.015625 -36.175781 43.203125 -34.59375 C 44.398438 -33.007812 49.921875 -34.828125 59.765625 -40.046875 L 67.203125 -44.40625 C 74.203125 -48.894531 77.96875 -50.578125 78.5 -49.453125 Z M 78.5 -49.453125 "/></g></g></g></svg>