<svg id="eNHv8IZyROo1" xmlns="http://www.w3.org/2000/svg" xmlns:xlink="http://www.w3.org/1999/xlink" viewBox="0 0 1440 300" shape-rendering="geometricPrecision" text-rendering="geometricPrecision"><path d="M687.292,68v.36h-16.29v134.28h16.29v.36h-60.299v-.36h16.11v-66.06h-48.601v66.06h16.291v.36h-60.391v-.36h16.2v-134.28h-16.2v-.36h60.391v.36h-16.291v67.86h48.601v-67.86h-16.11v-.36h60.299Z" transform="translate(0-.45)" fill="#fff"/><path d="M37.71,203v-.36h16.2v-64.44L13.59,68.36h-11.79v-.36h63v.36h-18.72l35.46,65.43l32.13-65.43h-20.97v-.36h37.8v.36h-16.29L81.9,134.06v68.58h18v.36h-62.19Z" transform="translate(0-.45)" fill="#fff"/><path d="M182.744,203v-.36h19.8v-134.28h-19.8v-.36h69.39v.36h-21.6v134.28h21.6v.36h-69.39Z" transform="translate(0-.45)" fill="#fff"/><path d="M303.652,68v134.64h20.88v.36h-39.06v-.36h17.82v-134.28h-17.82v-.36h18.18Zm110.52,0v.36h-18.9v136.44h-.36L303.472,68h33.3l58.14,89.19v-88.83h-20.7v-.36h39.96Z" transform="translate(0-1.35)" fill="#fff"/><path d="M809.303,204.8c-9.54,0-18.12-1.74-25.74-5.22-7.56-3.48-13.98-8.37-19.26-14.67s-9.33-13.65-12.15-22.05c-2.76-8.4-4.14-17.52-4.14-27.36s1.47-18.96,4.41-27.36s7.11-15.75,12.51-22.05c5.46-6.3,11.94-11.19,19.44-14.67s15.81-5.22,24.93-5.22c9.18,0,17.49,1.74,24.93,5.22c7.5,3.48,13.95,8.37,19.35,14.67c5.46,6.3,9.63,13.65,12.51,22.05c2.94,8.4,4.41,17.52,4.41,27.36s-1.38,18.96-4.14,27.36-6.78,15.75-12.06,22.05-11.7,11.19-19.26,14.67-16.14,5.22-25.74,5.22Zm0-.36c6.3,0,11.37-1.8,15.21-5.4c3.9-3.66,6.9-8.67,9-15.03c2.1-6.42,3.51-13.77,4.23-22.05.78-8.34,1.17-17.16,1.17-26.46c0-9.36-.48-18.18-1.44-26.46-.9-8.28-2.46-15.6-4.68-21.96-2.22-6.42-5.25-11.43-9.09-15.03-3.78-3.66-8.58-5.49-14.4-5.49-5.76,0-10.59,1.83-14.49,5.49-3.84,3.6-6.87,8.61-9.09,15.03-2.22,6.36-3.81,13.68-4.77,21.96-.9,8.28-1.35,17.1-1.35,26.46c0,9.3.36,18.12,1.08,26.46.78,8.28,2.22,15.6,4.32,21.96s5.1,11.37,9,15.03c3.96,3.66,9.06,5.49,15.3,5.49Z" transform="translate(0-.45)" fill="#fff"/><path d="M963.165,159.17v-.36h51.215v.36h-51.215ZM1004.93,65.3l47.61,137.34h12.78v.36h-61.29v-.36h16.11L985.665,95.81l-37.62,106.83h21.78v.36h-39.6v-.36h17.46L995.925,65.3h9.005Z" transform="translate(0 0.9)" fill="#fff"/><path d="M1138.99,68v134.64h20.88v.36h-39.06v-.36h17.82v-134.28h-17.82v-.36h18.18Zm110.52,0v.36h-18.9v136.44h-.36L1138.81,68h33.3l58.14,89.19v-88.83h-20.7v-.36h39.96Z" transform="translate(0-1.35)" fill="#fff"/><path d="M1376.91,151.52h57.69v.36h-9v23.22c-2.94,3.06-6.06,6.33-9.36,9.81-3.24,3.42-6.93,6.66-11.07,9.72-4.14,3-8.97,5.46-14.49,7.38-5.46,1.86-11.82,2.79-19.08,2.79-13.44,0-24.93-2.85-34.47-8.55-9.48-5.7-16.77-13.74-21.87-24.12-5.1-10.44-7.65-22.65-7.65-36.63c0-10.5,1.74-20.01,5.22-28.53c3.54-8.52,8.37-15.81,14.49-21.87s13.2-10.71,21.24-13.95c8.04-3.3,16.62-4.95,25.74-4.95c5.28,0,10.29.93,15.03,2.79s9.03,4.41,12.87,7.65L1420.74,68h.36v39.6h-.36c-.9-4.86-2.7-9.66-5.4-14.4-2.64-4.8-5.94-9.15-9.9-13.05s-8.43-7.02-13.41-9.36c-4.92-2.4-10.08-3.6-15.48-3.6-6.72,0-12.45,2.01-17.19,6.03-4.74,3.96-8.61,9.27-11.61,15.93-2.94,6.6-5.1,13.92-6.48,21.96s-2.07,16.17-2.07,24.39c0,8.16.48,16.32,1.44,24.48s2.61,15.6,4.95,22.32c2.4,6.66,5.7,12.03,9.9,16.11c4.26,4.02,9.63,6.03,16.11,6.03c3.78,0,7.02-.87,9.72-2.61c2.76-1.74,5.1-3.9,7.02-6.48c1.92-2.64,3.48-5.31,4.68-8.01s2.13-4.98,2.79-6.84v-28.62h-18.9v-.36Z" transform="translate(0-.45)" fill="#fff"/></svg>
